<?xml version="1.0" encoding="iso-8859-1"?>
<!-- Generator: Adobe Illustrator 28.5.0, SVG Export Plug-In . SVG Version: 9.03 Build 54727)  -->
<svg version="1.1" id="Capa_1" xmlns="http://www.w3.org/2000/svg" xmlns:xlink="http://www.w3.org/1999/xlink" x="0px" y="0px"
	 viewBox="0 0 244.73 68.89" style="enable-background:new 0 0 244.73 68.89;" xml:space="preserve">
<g>
	<path style="fill-rule:evenodd;clip-rule:evenodd;fill:#002A8D;" d="M63.13,51.41c0,0-0.45,2.1,1.52,2.28
		c0.99,0.03,2.05,0.03,3.16,0.03c7.09,0,13.57-2.57,13.71-8.9c0.13-5.6-4.91-7.29-10.99-7.29h-4.29L63.13,51.41L63.13,51.41z
		 M95.28,45.13c0,8.39-7.12,19.45-31.76,18.09c-2.89-0.16-4.66-0.4-7.27-1.03c-9.28-2.26-6.02-13.08-6.02-13.08l9.44-41.88
		c5.2-0.84,11.02-1.34,17.01-1.34c13.18,0,21.91,4.65,21.91,13.34c0,8.14-7.95,12.57-13.97,13.57C89.4,33.16,95.28,36.8,95.28,45.13
		L95.28,45.13z M71.19,15.61L68.81,26.4c0,0-0.59,2.31,1.43,2.31h2.78c7.15,0,12.1-2.77,12.22-7.64c0.1-4.02-3.4-5.77-8.38-5.77
		C74.58,15.3,72.2,15.46,71.19,15.61L71.19,15.61z M155.53,63.38h-7.82l12.4-55.83c5.13-1.18,10.53-1.42,16.78-1.37
		c15.26,0.06,22.26,5.83,22.26,15.89c0,9.22-7.34,22.78-28.45,22.78c-2.16,0-4.02-0.24-5.36-0.33c0,0-1.72,7.76-2.74,12.34
		C161.3,62.59,157.53,63.38,155.53,63.38L155.53,63.38z M172.49,16.02l-3.45,15.57c0,0-1.11,3.31,2.86,3.31
		c0.49,0.02,1.02,0.04,1.61,0.04c8.87-0.07,13.43-5.85,13.43-11.85c0-5.89-4.07-7.34-8.98-7.34
		C175.46,15.74,173.58,15.86,172.49,16.02L172.49,16.02z M116.74,38.71c0,8.81,5.12,14.45,13.9,14.45c3.62,0,7.57-0.61,12.89-4.51
		l-2.09,9.39c0,0-0.58,3.11-4.04,4.32c-2.81,1.05-5.78,1.53-10.27,1.53c-12.52,0-24.74-6.16-24.74-24.43
		C102.39,22.37,113.34,5,134.48,5c4.15,0,7.08,0.58,10.83,1.8c5.79,1.87,6.49,5,6.11,6.88c-0.39,1.92-1.76,6.55-1.76,6.55
		c-3.64-3.25-9.98-4.17-13.51-4.17C122.64,16.05,116.74,29.62,116.74,38.71L116.74,38.71z M27.47,31.41
		c-4.72-5.12-9.71-8.22-13.39-9.98c0,0-1.79-0.89-2.73-1.4c1.36-3.07,3.16-5.26,3.16-5.26c0.25-0.33,5.69-6.72,10.48-4.48
		C30.21,12.65,30.74,23.43,27.47,31.41L27.47,31.41z M221.57,31.41c-4.72-5.12-9.71-8.22-13.39-9.98c0,0-1.79-0.89-2.73-1.4
		c1.36-3.07,3.16-5.26,3.16-5.26c0.25-0.33,5.69-6.72,10.48-4.48C224.31,12.65,224.84,23.43,221.57,31.41L221.57,31.41z"/>
	<path style="fill-rule:evenodd;clip-rule:evenodd;fill:#FF7800;" d="M43.68,39.57c-5.09,8.14-18.99,17.41-22.93,18.8
		c-7.66,3.2-12.84-2.74-13.28-3.36C6.04,53.17,5.69,52.78,5,51.44c-0.13,0.22,14.7-6.68,20.02-15.61
		c5.76-7.67,6.26-22.71-0.03-25.54c1.9,0.96,6.38,3.53,10.42,7.13c4.03,3.42,7.52,7.9,7.44,7.84
		C43.28,25.85,48.33,32.14,43.68,39.57L43.68,39.57z M236.95,25.27c0.43,0.58,5.48,6.87,0.83,14.3
		c-5.09,8.14-18.99,17.41-22.93,18.8c-7.66,3.2-12.84-2.74-13.28-3.36c-1.43-1.84-1.78-2.23-2.47-3.57
		c-0.13,0.22,14.7-6.68,20.02-15.61c5.76-7.67,6.26-22.71-0.03-25.54c1.9,0.96,6.38,3.53,10.42,7.13
		C233.54,20.85,237.03,25.33,236.95,25.27L236.95,25.27z"/>
</g>
</svg>
