<?xml version="1.0" encoding="iso-8859-1"?>
<!-- Generator: Adobe Illustrator 16.0.0, SVG Export Plug-In . SVG Version: 6.00 Build 0)  -->
<!DOCTYPE svg PUBLIC "-//W3C//DTD SVG 1.1//EN" "http://www.w3.org/Graphics/SVG/1.1/DTD/svg11.dtd">
<svg version="1.1" id="Capa_1" xmlns="http://www.w3.org/2000/svg" xmlns:xlink="http://www.w3.org/1999/xlink" x="0px" y="0px"
	 width="612px" height="612px" viewBox="0 0 612 612" style="enable-background:new 0 0 612 612;" xml:space="preserve">
<g>
	<g>
		<g>
			<path d="M9.563,611.945c-5.279,0-9.563-4.304-9.563-9.562c0-5.279,4.283-9.563,9.563-9.563h592.835
				c5.278,0,9.562,4.283,9.562,9.563s-4.283,9.562-9.562,9.562H9.563z"/>
			<path d="M39.545,210.4h532.93L306,21.282L39.545,210.4L39.545,210.4z M602.438,229.525H9.583v-0.04
				c-2.988-0.02-5.917-1.395-7.77-4.004c-3.048-4.283-2.032-10.24,2.251-13.288L300.342,1.918l0.1-0.08l0.02-0.02
				c3.227-2.291,7.649-2.411,11.057,0l295.819,209.937c2.789,1.673,4.662,4.722,4.662,8.208
				C612,225.242,607.697,229.525,602.438,229.525z"/>
			<path d="M300.741,94.076c-4.383-2.909-5.598-8.826-2.689-13.208c2.909-4.382,8.826-5.598,13.208-2.689l86.063,57.355
				c4.383,2.909,5.578,8.826,2.688,13.208c-2.909,4.383-8.826,5.598-13.209,2.689L300.741,94.076z"/>
			<path d="M35.481,573.835c-5.279,0-9.563-4.283-9.563-9.563c0-5.279,4.283-9.562,9.563-9.562h541.018
				c5.279,0,9.563,4.283,9.563,9.562c0,5.28-4.283,9.563-9.563,9.563H35.481z"/>
			<path d="M61.24,535.585c-5.279,0-9.563-4.283-9.563-9.563c0-5.279,4.283-9.562,9.563-9.562h489.5
				c5.278,0,9.562,4.283,9.562,9.562c0,5.28-4.283,9.563-9.562,9.563H61.24z"/>
			<path d="M459.08,258.233c0-5.279,4.283-9.563,9.562-9.563c5.28,0,9.563,4.283,9.563,9.563v219.978h38.289V258.233
				c0-5.279,4.283-9.563,9.562-9.563c5.28,0,9.563,4.283,9.563,9.563v229.279v0.26c0,5.279-4.283,9.563-9.563,9.563h-57.176h-0.238
				c-5.278,0-9.562-4.283-9.562-9.563L459.08,258.233L459.08,258.233z"/>
			<path d="M300.681,78.159c4.363-2.928,10.3-1.773,13.229,2.61c2.929,4.363,1.753,10.3-2.61,13.228l-86.082,57.395
				c-4.363,2.929-10.3,1.773-13.228-2.61c-2.929-4.363-1.753-10.299,2.61-13.228L300.681,78.159z"/>
			<path d="M76.38,258.233c0-5.279,4.283-9.563,9.563-9.563c5.28,0,9.563,4.283,9.563,9.563v219.978h38.29V258.233
				c0-5.279,4.303-9.563,9.563-9.563c5.279,0,9.563,4.283,9.563,9.563v229.279v0.26c0,5.279-4.283,9.563-9.563,9.563H86.182h-0.219
				c-5.279,0-9.563-4.283-9.563-9.563V258.233H76.38L76.38,258.233z"/>
			<path d="M200.772,258.233c0-5.279,4.283-9.563,9.563-9.563c5.28,0,9.563,4.283,9.563,9.563v219.978h38.29V258.233
				c0-5.279,4.283-9.563,9.563-9.563c5.28,0,9.563,4.283,9.563,9.563v229.279v0.26c0,5.279-4.283,9.563-9.563,9.563h-57.176h-0.239
				c-5.279,0-9.563-4.283-9.563-9.563L200.772,258.233L200.772,258.233z"/>
			<path d="M334.707,258.233c0-5.279,4.283-9.563,9.562-9.563c5.28,0,9.563,4.283,9.563,9.563v219.978h38.29V258.233
				c0-5.279,4.283-9.563,9.562-9.563c5.28,0,9.563,4.283,9.563,9.563v229.279v0.26c0,5.279-4.283,9.563-9.563,9.563H344.51h-0.239
				c-5.278,0-9.562-4.283-9.562-9.563L334.707,258.233L334.707,258.233z"/>
		</g>
	</g>
</g>
<g>
</g>
<g>
</g>
<g>
</g>
<g>
</g>
<g>
</g>
<g>
</g>
<g>
</g>
<g>
</g>
<g>
</g>
<g>
</g>
<g>
</g>
<g>
</g>
<g>
</g>
<g>
</g>
<g>
</g>
</svg>
